<svg data-v-423bf9ae="" xmlns="http://www.w3.org/2000/svg" viewBox="0 0 584 112" class="iconLeftSlogan"><!----><!----><!----><g data-v-423bf9ae="" id="680ca295-5a16-4d22-a54d-4b30718d69d0" fill="white" transform="matrix(4.282655239105225,0,0,4.282655239105225,104.35221099853516,-11.991432189941406)"><path d="M0.31 13.78L2.25 2.80L5.91 2.80L6.00 11.22L9.08 2.80L12.76 2.80L10.83 13.78L8.43 13.78L9.28 8.80L10.22 4.81L10.14 4.81L6.57 13.78L4.60 13.78L4.19 4.81L4.08 4.81L3.62 8.78L2.71 13.78L0.31 13.78ZM14.32 4.60L14.64 2.80L16.95 2.80L16.64 4.60L14.32 4.60ZM12.68 13.78L14.12 5.63L16.45 5.63L15.02 13.78L12.68 13.78ZM15.88 13.78L18.81 9.68L17.37 5.63L19.74 5.63L20.47 8.34L22.24 5.63L24.69 5.63L21.79 9.68L23.20 13.78L20.85 13.78L20.10 11.02L18.34 13.78L15.88 13.78ZM27.19 13.96L27.19 13.96Q25.80 13.96 25.04 13.19L25.04 13.19L25.04 13.19Q24.27 12.43 24.27 10.90L24.27 10.90L24.27 10.90Q24.27 10.34 24.40 9.57L24.40 9.57L24.40 9.57Q24.77 7.48 25.81 6.48L25.81 6.48L25.81 6.48Q26.84 5.48 28.41 5.48L28.41 5.48L28.41 5.48Q29.80 5.48 30.56 6.23L30.56 6.23L30.56 6.23Q31.31 6.98 31.31 8.50L31.31 8.50L31.31 8.50Q31.31 9.11 31.17 9.90L31.17 9.90L31.17 9.90Q30.81 11.96 29.79 12.96L29.79 12.96L29.79 12.96Q28.77 13.96 27.19 13.96L27.19 13.96ZM27.20 12.22L27.20 12.22Q27.63 12.22 27.97 11.98L27.97 11.98L27.97 11.98Q28.30 11.74 28.57 11.15L28.57 11.15L28.57 11.15Q28.83 10.56 29.01 9.56L29.01 9.56L29.01 9.56Q29.15 8.78 29.15 8.26L29.15 8.26L29.15 8.26Q29.15 7.66 28.95 7.43L28.95 7.43L28.95 7.43Q28.75 7.20 28.36 7.20L28.36 7.20L28.36 7.20Q27.95 7.20 27.62 7.43L27.62 7.43L27.62 7.43Q27.30 7.67 27.03 8.26L27.03 8.26L27.03 8.26Q26.77 8.85 26.59 9.88L26.59 9.88L26.59 9.88Q26.46 10.64 26.46 11.15L26.46 11.15L26.46 11.15Q26.46 11.75 26.64 11.98L26.64 11.98L26.64 11.98Q26.83 12.22 27.20 12.22L27.20 12.22ZM31.66 13.78L33.59 2.80L35.93 2.80L34.00 13.78L31.66 13.78ZM38.70 13.96L38.70 13.96Q37.30 13.96 36.54 13.19L36.54 13.19L36.54 13.19Q35.78 12.43 35.78 10.90L35.78 10.90L35.78 10.90Q35.78 10.34 35.91 9.57L35.91 9.57L35.91 9.57Q36.28 7.48 37.31 6.48L37.31 6.48L37.31 6.48Q38.34 5.48 39.92 5.48L39.92 5.48L39.92 5.48Q41.31 5.48 42.06 6.23L42.06 6.23L42.06 6.23Q42.81 6.98 42.81 8.50L42.81 8.50L42.81 8.50Q42.81 9.11 42.68 9.90L42.68 9.90L42.68 9.90Q42.31 11.96 41.30 12.96L41.30 12.96L41.30 12.96Q40.28 13.96 38.70 13.96L38.70 13.96ZM38.71 12.22L38.71 12.22Q39.14 12.22 39.47 11.98L39.47 11.98L39.47 11.98Q39.81 11.74 40.07 11.15L40.07 11.15L40.07 11.15Q40.34 10.56 40.52 9.56L40.52 9.56L40.52 9.56Q40.65 8.78 40.65 8.26L40.65 8.26L40.65 8.26Q40.65 7.66 40.46 7.43L40.46 7.43L40.46 7.43Q40.26 7.20 39.86 7.20L39.86 7.20L39.86 7.20Q39.45 7.20 39.13 7.43L39.13 7.43L39.13 7.43Q38.80 7.67 38.54 8.26L38.54 8.26L38.54 8.26Q38.27 8.85 38.10 9.88L38.10 9.88L38.10 9.88Q37.96 10.64 37.96 11.15L37.96 11.15L37.96 11.15Q37.96 11.75 38.15 11.98L38.15 11.98L38.15 11.98Q38.34 12.22 38.71 12.22L38.71 12.22ZM49.09 5.63L51.11 5.63L49.77 13.19L49.77 13.19Q49.42 15.17 48.27 15.97L48.27 15.97L48.27 15.97Q47.11 16.78 45.64 16.78L45.64 16.78L45.64 16.78Q44.83 16.78 43.99 16.45L43.99 16.45L43.99 16.45Q43.15 16.13 42.59 15.41L42.59 15.41L43.75 14.11L43.75 14.11Q44.15 14.71 44.62 14.89L44.62 14.89L44.62 14.89Q45.08 15.06 45.58 15.06L45.58 15.06L45.58 15.06Q45.97 15.06 46.38 14.85L46.38 14.85L46.38 14.85Q46.78 14.65 47.09 14.22L47.09 14.22L47.09 14.22Q47.39 13.78 47.51 13.14L47.51 13.14L47.63 12.44L47.63 12.44Q47.25 12.95 46.80 13.24L46.80 13.24L46.80 13.24Q46.34 13.53 45.62 13.53L45.62 13.53L45.62 13.53Q44.92 13.53 44.40 13.18L44.40 13.18L44.40 13.18Q43.89 12.83 43.61 12.17L43.61 12.17L43.61 12.17Q43.33 11.51 43.33 10.59L43.33 10.59L43.33 10.59Q43.33 9.97 43.45 9.32L43.45 9.32L43.45 9.32Q43.65 8.14 44.15 7.27L44.15 7.27L44.15 7.27Q44.64 6.41 45.33 5.94L45.33 5.94L45.33 5.94Q46.01 5.48 46.79 5.48L46.79 5.48L46.79 5.48Q47.53 5.48 48.02 5.82L48.02 5.82L48.02 5.82Q48.51 6.17 48.65 6.71L48.65 6.71L48.79 6.71L49.09 5.63ZM48.35 9.42L48.35 9.42Q48.43 8.96 48.43 8.57L48.43 8.57L48.43 8.57Q48.43 7.36 47.56 7.36L47.56 7.36L47.56 7.36Q46.87 7.36 46.40 7.98L46.40 7.98L46.40 7.98Q45.93 8.61 45.74 9.70L45.74 9.70L45.74 9.70Q45.66 10.16 45.66 10.53L45.66 10.53L45.66 10.53Q45.66 11.71 46.53 11.71L46.53 11.71L46.53 11.71Q47.23 11.71 47.69 11.10L47.69 11.10L47.69 11.10Q48.16 10.49 48.35 9.42L48.35 9.42ZM52.17 16.81L52.17 16.81Q51.63 16.81 51.29 16.74L51.29 16.74L51.29 16.74Q50.96 16.67 50.61 16.54L50.61 16.54L51.17 15.12L51.17 15.12Q51.44 15.19 51.79 15.19L51.79 15.19L51.79 15.19Q52.38 15.19 52.75 14.83L52.75 14.83L52.75 14.83Q53.12 14.48 53.38 13.78L53.38 13.78L52.68 13.78L51.97 5.63L54.34 5.63L54.40 9.24L54.35 11.89L54.37 11.89L55.24 9.24L56.59 5.63L58.99 5.63L55.41 13.86L55.41 13.86Q54.67 15.51 53.86 16.16L53.86 16.16L53.86 16.16Q53.04 16.81 52.17 16.81L52.17 16.81ZM61.67 13.78L63.61 2.80L67.27 2.80L67.36 11.22L70.44 2.80L74.12 2.80L72.19 13.78L69.79 13.78L70.64 8.80L71.58 4.81L71.50 4.81L67.93 13.78L65.96 13.78L65.55 4.81L65.44 4.81L64.98 8.78L64.07 13.78L61.67 13.78ZM77.98 5.48L77.98 5.48Q79.30 5.48 80.03 6.03L80.03 6.03L80.03 6.03Q80.77 6.59 80.77 7.72L80.77 7.72L80.77 7.72Q80.77 8.05 80.71 8.42L80.71 8.42L79.76 13.78L77.76 13.78L77.87 12.66L77.74 12.66L77.74 12.66Q77.38 13.39 76.81 13.68L76.81 13.68L76.81 13.68Q76.24 13.96 75.71 13.96L75.71 13.96L75.71 13.96Q74.81 13.96 74.31 13.52L74.31 13.52L74.31 13.52Q73.81 13.09 73.81 12.28L73.81 12.28L73.81 12.28Q73.81 12.09 73.86 11.79L73.86 11.79L73.86 11.79Q73.99 11.12 74.33 10.61L74.33 10.61L74.33 10.61Q74.68 10.10 75.27 9.68L75.27 9.68L75.27 9.68Q76.47 8.86 78.50 8.50L78.50 8.50L78.54 8.33L78.54 8.33Q78.65 7.96 78.65 7.70L78.65 7.70L78.65 7.70Q78.65 7.40 78.47 7.26L78.47 7.26L78.47 7.26Q78.30 7.12 77.92 7.12L77.92 7.12L77.92 7.12Q77.37 7.12 76.96 7.46L76.96 7.46L76.96 7.46Q76.54 7.81 76.32 8.35L76.32 8.35L74.69 7.51L74.69 7.51Q75.14 6.47 76.00 5.97L76.00 5.97L76.00 5.97Q76.86 5.48 77.98 5.48L77.98 5.48ZM76.53 12.34L76.53 12.34Q76.92 12.34 77.30 12.07L77.30 12.07L77.30 12.07Q77.69 11.79 77.98 11.36L77.98 11.36L78.21 9.99L78.21 9.99Q77.44 10.12 76.87 10.51L76.87 10.51L76.87 10.51Q76.52 10.75 76.30 11.06L76.30 11.06L76.30 11.06Q76.08 11.37 76.02 11.69L76.02 11.69L76.02 11.69Q76.01 11.80 76.01 11.85L76.01 11.85L76.01 11.85Q76.01 12.08 76.15 12.21L76.15 12.21L76.15 12.21Q76.29 12.34 76.53 12.34L76.53 12.34ZM84.03 13.95L84.03 13.95Q83.19 13.95 82.52 13.65L82.52 13.65L82.52 13.65Q81.85 13.35 81.44 12.77L81.44 12.77L81.44 12.77Q81.03 12.19 80.94 11.36L80.94 11.36L82.67 10.86L82.67 10.86Q82.71 11.29 82.90 11.60L82.90 11.60L82.90 11.60Q83.10 11.92 83.38 12.08L83.38 12.08L83.38 12.08Q83.67 12.25 83.95 12.25L83.95 12.25L83.95 12.25Q84.36 12.25 84.64 11.97L84.64 11.97L84.64 11.97Q84.91 11.70 84.91 11.27L84.91 11.27L84.91 11.27Q84.91 11.02 84.78 10.84L84.78 10.84L84.78 10.84Q84.64 10.66 84.43 10.53L84.43 10.53L84.43 10.53Q84.23 10.40 83.85 10.21L83.85 10.21L83.61 10.08L83.61 10.08Q83.08 9.81 82.76 9.58L82.76 9.58L82.76 9.58Q82.43 9.35 82.22 8.99L82.22 8.99L82.22 8.99Q82.00 8.62 82.00 8.09L82.00 8.09L82.00 8.09Q82.00 7.27 82.42 6.68L82.42 6.68L82.42 6.68Q82.83 6.08 83.53 5.78L83.53 5.78L83.53 5.78Q84.23 5.47 85.07 5.47L85.07 5.47L85.07 5.47Q85.75 5.47 86.33 5.69L86.33 5.69L86.33 5.69Q86.91 5.91 87.29 6.41L87.29 6.41L87.29 6.41Q87.66 6.90 87.69 7.70L87.69 7.70L86.08 7.99L86.08 7.99Q86.06 7.49 85.78 7.24L85.78 7.24L85.78 7.24Q85.50 6.99 85.10 6.99L85.10 6.99L85.10 6.99Q84.72 6.99 84.42 7.21L84.42 7.21L84.42 7.21Q84.13 7.42 84.09 7.82L84.09 7.82L84.09 7.82Q84.07 8.07 84.19 8.26L84.19 8.26L84.19 8.26Q84.31 8.44 84.53 8.58L84.53 8.58L84.53 8.58Q84.74 8.71 85.15 8.92L85.15 8.92L85.43 9.06L85.43 9.06Q85.96 9.32 86.31 9.58L86.31 9.58L86.31 9.58Q86.67 9.84 86.90 10.24L86.90 10.24L86.90 10.24Q87.12 10.64 87.12 11.20L87.12 11.20L87.12 11.20Q87.12 11.33 87.12 11.40L87.12 11.40L87.12 11.40Q87.08 12.15 86.67 12.74L86.67 12.74L86.67 12.74Q86.26 13.32 85.57 13.63L85.57 13.63L85.57 13.63Q84.88 13.95 84.03 13.95L84.03 13.95ZM90.19 13.78L90.19 13.78Q89.24 13.78 88.79 13.36L88.79 13.36L88.79 13.36Q88.35 12.95 88.35 12.07L88.35 12.07L88.35 12.07Q88.35 11.65 88.44 11.16L88.44 11.16L89.14 7.14L88.29 7.14L88.55 5.63L89.57 5.63L90.38 3.76L92.06 3.76L91.73 5.63L93.17 5.63L92.90 7.14L91.46 7.14L90.83 10.75L90.83 10.75Q90.74 11.26 90.74 11.46L90.74 11.46L90.74 11.46Q90.74 11.68 90.81 11.79L90.81 11.79L90.81 11.79Q90.88 11.89 91.04 11.93L91.04 11.93L91.04 11.93Q91.19 11.97 91.49 11.97L91.49 11.97L92.04 11.97L91.72 13.78L90.19 13.78ZM97.04 5.48L97.04 5.48Q98.47 5.48 99.12 6.22L99.12 6.22L99.12 6.22Q99.78 6.97 99.78 8.25L99.78 8.25L99.78 8.25Q99.78 8.79 99.67 9.37L99.67 9.37L99.67 9.37Q99.61 9.81 99.45 10.29L99.45 10.29L95.26 10.29L95.26 10.29Q95.18 10.66 95.18 10.93L95.18 10.93L95.18 10.93Q95.18 11.50 95.45 11.81L95.45 11.81L95.45 11.81Q95.72 12.13 96.19 12.13L96.19 12.13L96.19 12.13Q96.63 12.13 97.00 11.90L97.00 11.90L97.00 11.90Q97.36 11.68 97.62 11.25L97.62 11.25L99.20 11.92L99.20 11.92Q98.62 13.06 97.84 13.51L97.84 13.51L97.84 13.51Q97.05 13.95 96.03 13.95L96.03 13.95L96.03 13.95Q95.12 13.95 94.44 13.58L94.44 13.58L94.44 13.58Q93.76 13.21 93.39 12.48L93.39 12.48L93.39 12.48Q93.02 11.76 93.02 10.73L93.02 10.73L93.02 10.73Q93.02 10.19 93.13 9.59L93.13 9.59L93.13 9.59Q93.47 7.65 94.45 6.56L94.45 6.56L94.45 6.56Q95.42 5.48 97.04 5.48L97.04 5.48ZM97.11 7.21L97.11 7.21Q96.47 7.21 96.09 7.66L96.09 7.66L96.09 7.66Q95.71 8.11 95.55 8.82L95.55 8.82L97.84 8.82L97.84 8.82Q97.92 8.33 97.92 8.09L97.92 8.09L97.92 8.09Q97.92 7.66 97.74 7.43L97.74 7.43L97.74 7.43Q97.56 7.21 97.11 7.21L97.11 7.21ZM100.11 13.78L101.54 5.63L103.50 5.63L103.38 6.85L103.48 6.85L103.48 6.85Q103.80 6.15 104.21 5.82L104.21 5.82L104.21 5.82Q104.61 5.49 105.13 5.49L105.13 5.49L105.13 5.49Q105.54 5.49 105.95 5.64L105.95 5.64L105.57 7.78L105.57 7.78Q105.33 7.72 105.10 7.72L105.10 7.72L105.10 7.72Q104.36 7.72 103.84 8.27L103.84 8.27L103.84 8.27Q103.32 8.81 103.12 9.91L103.12 9.91L102.44 13.78L100.11 13.78ZM108.17 13.95L108.17 13.95Q107.33 13.95 106.66 13.65L106.66 13.65L106.66 13.65Q106.00 13.35 105.58 12.77L105.58 12.77L105.58 12.77Q105.17 12.19 105.08 11.36L105.08 11.36L106.81 10.86L106.81 10.86Q106.85 11.29 107.05 11.60L107.05 11.60L107.05 11.60Q107.24 11.92 107.53 12.08L107.53 12.08L107.53 12.08Q107.81 12.25 108.10 12.25L108.10 12.25L108.10 12.25Q108.51 12.25 108.78 11.97L108.78 11.97L108.78 11.97Q109.05 11.70 109.05 11.27L109.05 11.27L109.05 11.27Q109.05 11.02 108.92 10.84L108.92 10.84L108.92 10.84Q108.79 10.66 108.58 10.53L108.58 10.53L108.58 10.53Q108.37 10.40 107.99 10.21L107.99 10.21L107.75 10.08L107.75 10.08Q107.23 9.81 106.90 9.58L106.90 9.58L106.90 9.58Q106.58 9.35 106.36 8.99L106.36 8.99L106.36 8.99Q106.15 8.62 106.15 8.09L106.15 8.09L106.15 8.09Q106.15 7.27 106.56 6.68L106.56 6.68L106.56 6.68Q106.98 6.08 107.68 5.78L107.68 5.78L107.68 5.78Q108.38 5.47 109.21 5.47L109.21 5.47L109.21 5.47Q109.89 5.47 110.48 5.69L110.48 5.69L110.48 5.69Q111.06 5.91 111.43 6.41L111.43 6.41L111.43 6.41Q111.81 6.90 111.84 7.70L111.84 7.70L110.23 7.99L110.23 7.99Q110.20 7.49 109.92 7.24L109.92 7.24L109.92 7.24Q109.64 6.99 109.25 6.99L109.25 6.99L109.25 6.99Q108.86 6.99 108.57 7.21L108.57 7.21L108.57 7.21Q108.27 7.42 108.23 7.82L108.23 7.82L108.23 7.82Q108.21 8.07 108.34 8.26L108.34 8.26L108.34 8.26Q108.46 8.44 108.67 8.58L108.67 8.58L108.67 8.58Q108.88 8.71 109.29 8.92L109.29 8.92L109.57 9.06L109.57 9.06Q110.10 9.32 110.46 9.58L110.46 9.58L110.46 9.58Q110.82 9.84 111.04 10.24L111.04 10.24L111.04 10.24Q111.27 10.64 111.27 11.20L111.27 11.20L111.27 11.20Q111.27 11.33 111.26 11.40L111.26 11.40L111.26 11.40Q111.23 12.15 110.81 12.74L110.81 12.74L110.81 12.74Q110.40 13.32 109.71 13.63L109.71 13.63L109.71 13.63Q109.02 13.95 108.17 13.95L108.17 13.95Z"></path></g><!----><g data-v-423bf9ae="" id="b4c3ac8e-aac5-4981-bca4-41361a2acb23" transform="matrix(1.1111109256744385,0,0,1.1111109256744385,0.16003158688545227,0.4444621801376343)" stroke="none" fill="white"><path d="M47.619 76.362c14.407-5.309 23.655-13.404 27.485-24.063 7.05-19.616-6.332-42.57-11.369-51.212L63.102 0h-49.09l-.634 1.087C8.341 9.729-5.041 32.683 2.009 52.299 5.84 62.958 15.087 71.054 29.495 76.362c2.614.963 3.512 4.074 3.776 5.367.576 2.818-.041 4.84-.392 5.194-2.619 1.736-6.206 2.32-10.743 3.061-3.272.534-6.982 1.139-11.262 2.301a2.448 2.448 0 0 0-1.563 1.311c-.227.47-.755 1.571.773 5.088l.573 1.316h55.799l.572-1.316c1.528-3.517 1-4.618.774-5.088a2.457 2.457 0 0 0-1.564-1.311c-4.279-1.162-7.988-1.767-11.262-2.301-4.537-.74-8.124-1.324-10.742-3.061-.352-.354-.969-2.376-.393-5.194.265-1.292 1.163-4.404 3.778-5.367zM5.107 47.24C1.583 31.055 11.744 12.631 16.528 4.378h44.057C65.37 12.631 75.53 31.055 72.006 47.24H60.595c.002-.088.007-.177.007-.266 0-5.361-4.347-9.707-9.707-9.707s-9.706 4.346-9.706 9.707c0 .089.004.177.006.266H5.107zm34.232 34.941c-.356 3.021.099 6.808 2.445 8.372 3.409 2.273 7.416 2.927 12.488 3.753 2.186.356 4.574.746 7.179 1.315H15.663c2.604-.569 4.992-.959 7.179-1.315 5.072-.826 9.079-1.479 12.487-3.753 2.348-1.564 2.803-5.351 2.445-8.372-.439-3.729-2.031-6.775-4.397-8.604h10.359c-2.366 1.828-3.957 4.874-4.397 8.604z"></path></g><!----><g data-v-423bf9ae="" id="fbd5ac30-2e0e-4f16-a181-333023318f74" fill="white" transform="matrix(1.7414804697036743,0,0,1.7414804697036743,105.13996124267578,50.05614471435547)"><path d="M1.55 6.33L0.31 6.16L0.34 5.89L3.45 5.89L3.42 6.16L2.26 6.32L2.26 11.01L2.26 11.01Q2.26 11.87 2.44 12.49L2.44 12.49L2.44 12.49Q2.63 13.10 2.97 13.45L2.97 13.45L2.97 13.45Q3.32 13.79 3.77 13.95L3.77 13.95L3.77 13.95Q4.22 14.11 4.81 14.11L4.81 14.11L4.81 14.11Q5.98 14.11 6.62 13.40L6.62 13.40L6.62 13.40Q7.27 12.68 7.27 11.33L7.27 11.33L7.27 6.33L6.00 6.16L6.03 5.89L8.93 5.89L8.88 6.16L7.75 6.32L7.72 11.05L7.72 11.05Q7.72 12.78 6.98 13.68L6.98 13.68L6.98 13.68Q6.24 14.58 4.58 14.58L4.58 14.58L4.58 14.58Q4.08 14.58 3.66 14.49L3.66 14.49L3.66 14.49Q3.23 14.40 2.84 14.16L2.84 14.16L2.84 14.16Q2.44 13.93 2.16 13.56L2.16 13.56L2.16 13.56Q1.89 13.19 1.72 12.60L1.72 12.60L1.72 12.60Q1.55 12.01 1.55 11.24L1.55 11.24L1.55 6.33ZM20.03 14.40L16.62 14.40L16.65 14.11L17.73 13.90L17.73 6.51L16.63 6.36L16.69 6.12L16.69 6.12Q16.86 6.09 17.31 6.02L17.31 6.02L17.31 6.02Q17.75 5.94 17.98 5.91L17.98 5.91L17.98 5.91Q18.21 5.88 18.62 5.84L18.62 5.84L18.62 5.84Q19.03 5.81 19.45 5.81L19.45 5.81L19.45 5.81Q20.14 5.81 20.73 5.96L20.73 5.96L20.73 5.96Q21.31 6.10 21.78 6.40L21.78 6.40L21.78 6.40Q22.24 6.69 22.50 7.18L22.50 7.18L22.50 7.18Q22.76 7.66 22.76 8.29L22.76 8.29L22.76 8.29Q22.76 8.90 22.48 9.43L22.48 9.43L22.48 9.43Q22.20 9.97 21.73 10.33L21.73 10.33L21.73 10.33Q21.27 10.69 20.67 10.90L20.67 10.90L20.67 10.90Q20.07 11.10 19.43 11.10L19.43 11.10L19.43 11.10Q19.16 11.10 19.09 11.09L19.09 11.09L19.02 10.80L19.39 10.78L19.39 10.78Q20.06 10.75 20.55 10.55L20.55 10.55L20.55 10.55Q21.05 10.36 21.34 10.03L21.34 10.03L21.34 10.03Q21.63 9.70 21.77 9.30L21.77 9.30L21.77 9.30Q21.91 8.90 21.91 8.43L21.91 8.43L21.91 8.43Q21.91 7.98 21.74 7.57L21.74 7.57L21.74 7.57Q21.57 7.16 21.25 6.83L21.25 6.83L21.25 6.83Q20.93 6.50 20.41 6.31L20.41 6.31L20.41 6.31Q19.89 6.11 19.24 6.11L19.24 6.11L18.48 6.15L18.48 13.95L20.08 14.08L20.03 14.40ZM36.61 14.40L30.46 14.40L30.50 14.11L31.65 13.90L31.65 6.34L30.47 6.17L30.50 5.90L33.61 5.90L33.58 6.17L32.38 6.32L32.38 14.03L36.00 14.03L36.53 12.09L36.83 12.14L36.61 14.40ZM45.71 6.33L44.53 6.16L44.57 5.89L47.69 5.89L47.65 6.16L46.45 6.32L46.45 13.95L47.77 14.08L47.71 14.40L44.60 14.40L44.63 14.11L45.71 13.90L45.71 6.33ZM56.69 6.36L55.48 6.18L55.53 5.89L61.72 5.89L61.50 8.09L61.16 8.04L61.02 6.24L57.39 6.24L57.39 10.07L59.67 10.07L59.94 9.11L60.32 9.06L60.11 11.72L59.73 11.77L59.61 10.43L57.39 10.43L57.39 13.92L59.08 14.03L58.99 14.40L55.51 14.40L55.53 14.11L56.69 13.90L56.69 6.36ZM69.49 8.09L69.43 5.89L76.49 5.89L76.25 8.16L75.91 8.12L75.79 6.24L73.25 6.24L73.25 13.90L74.46 14.08L74.39 14.40L71.29 14.40L71.33 14.11L72.52 13.90L72.52 6.24L70.09 6.24L69.85 8.15L69.49 8.09ZM85.36 6.33L84.18 6.16L84.22 5.89L87.34 5.89L87.29 6.16L86.10 6.32L86.10 13.95L87.42 14.08L87.36 14.40L84.25 14.40L84.28 14.11L85.36 13.90L85.36 6.33ZM96.37 6.36L95.11 6.14L95.16 5.89L97.23 5.89L101.96 13.17L101.96 6.33L100.71 6.16L100.75 5.89L103.65 5.89L103.59 6.16L102.46 6.32L102.46 14.44L102.09 14.52L96.88 6.65L96.88 13.95L98.14 14.08L98.07 14.40L95.19 14.40L95.23 14.11L96.37 13.90L96.37 6.36ZM111.36 10.27L111.36 10.27L111.36 10.27Q111.36 9.64 111.53 9.00L111.53 9.00L111.53 9.00Q111.70 8.36 112.05 7.78L112.05 7.78L112.05 7.78Q112.40 7.21 112.88 6.75L112.88 6.75L112.88 6.75Q113.35 6.30 114.02 6.04L114.02 6.04L114.02 6.04Q114.69 5.77 115.45 5.77L115.45 5.77L115.45 5.77Q116.18 5.77 116.89 5.94L116.89 5.94L116.89 5.94Q117.59 6.11 118.06 6.47L118.06 6.47L117.86 8.64L117.55 8.61L117.34 6.99L117.34 6.99Q117.07 6.65 116.53 6.41L116.53 6.41L116.53 6.41Q115.98 6.17 115.22 6.17L115.22 6.17L115.22 6.17Q113.81 6.17 112.97 7.27L112.97 7.27L112.97 7.27Q112.14 8.37 112.14 10.07L112.14 10.07L112.14 10.07Q112.14 10.69 112.25 11.25L112.25 11.25L112.25 11.25Q112.36 11.81 112.61 12.34L112.61 12.34L112.61 12.34Q112.86 12.87 113.24 13.25L113.24 13.25L113.24 13.25Q113.62 13.63 114.21 13.86L114.21 13.86L114.21 13.86Q114.80 14.09 115.53 14.09L115.53 14.09L115.53 14.09Q116.59 14.09 117.30 13.59L117.30 13.59L117.32 11.03L115.67 10.86L115.71 10.60L118.99 10.60L118.95 10.86L118.03 11.01L118.03 13.86L118.03 13.86Q117.38 14.25 116.64 14.39L116.64 14.39L116.64 14.39Q115.90 14.53 114.82 14.53L114.82 14.53L114.82 14.53Q114.11 14.53 113.48 14.23L113.48 14.23L113.48 14.23Q112.85 13.93 112.38 13.39L112.38 13.39L112.38 13.39Q111.91 12.85 111.63 12.04L111.63 12.04L111.63 12.04Q111.36 11.23 111.36 10.27ZM136.58 13.60L136.58 13.60L136.79 11.66L137.12 11.71L137.31 13.21L137.31 13.21Q137.53 13.64 138.06 13.89L138.06 13.89L138.06 13.89Q138.59 14.14 139.19 14.14L139.19 14.14L139.19 14.14Q139.88 14.14 140.36 13.74L140.36 13.74L140.36 13.74Q140.83 13.33 140.83 12.61L140.83 12.61L140.83 12.61Q140.83 12.20 140.62 11.83L140.62 11.83L140.62 11.83Q140.40 11.46 140.06 11.18L140.06 11.18L140.06 11.18Q139.71 10.90 139.29 10.63L139.29 10.63L139.29 10.63Q138.87 10.36 138.46 10.07L138.46 10.07L138.46 10.07Q138.04 9.79 137.69 9.48L137.69 9.48L137.69 9.48Q137.35 9.17 137.13 8.75L137.13 8.75L137.13 8.75Q136.92 8.33 136.92 7.84L136.92 7.84L136.92 7.84Q136.92 6.88 137.61 6.29L137.61 6.29L137.61 6.29Q138.30 5.71 139.19 5.71L139.19 5.71L139.19 5.71Q139.77 5.71 140.31 5.90L140.31 5.90L140.31 5.90Q140.85 6.09 141.18 6.46L141.18 6.46L140.96 8.58L140.64 8.53L140.46 6.87L140.46 6.87Q140.27 6.54 139.86 6.32L139.86 6.32L139.86 6.32Q139.44 6.10 139.01 6.10L139.01 6.10L139.01 6.10Q138.41 6.10 138.00 6.48L138.00 6.48L138.00 6.48Q137.59 6.87 137.59 7.52L137.59 7.52L137.59 7.52Q137.59 7.96 137.81 8.35L137.81 8.35L137.81 8.35Q138.03 8.74 138.38 9.03L138.38 9.03L138.38 9.03Q138.74 9.32 139.16 9.61L139.16 9.61L139.16 9.61Q139.58 9.89 140.01 10.17L140.01 10.17L140.01 10.17Q140.44 10.45 140.79 10.75L140.79 10.75L140.79 10.75Q141.14 11.05 141.36 11.45L141.36 11.45L141.36 11.45Q141.59 11.85 141.59 12.29L141.59 12.29L141.59 12.29Q141.59 13.28 140.83 13.93L140.83 13.93L140.83 13.93Q140.08 14.57 138.84 14.57L138.84 14.57L138.84 14.57Q138.13 14.57 137.53 14.30L137.53 14.30L137.53 14.30Q136.92 14.03 136.58 13.60ZM152.71 14.40L149.30 14.40L149.34 14.11L150.42 13.90L150.42 6.51L149.31 6.36L149.37 6.12L149.37 6.12Q149.54 6.09 149.99 6.02L149.99 6.02L149.99 6.02Q150.44 5.94 150.67 5.91L150.67 5.91L150.67 5.91Q150.90 5.88 151.31 5.84L151.31 5.84L151.31 5.84Q151.72 5.81 152.13 5.81L152.13 5.81L152.13 5.81Q152.82 5.81 153.41 5.96L153.41 5.96L153.41 5.96Q154 6.10 154.46 6.40L154.46 6.40L154.46 6.40Q154.92 6.69 155.18 7.18L155.18 7.18L155.18 7.18Q155.44 7.66 155.44 8.29L155.44 8.29L155.44 8.29Q155.44 8.90 155.16 9.43L155.16 9.43L155.16 9.43Q154.88 9.97 154.42 10.33L154.42 10.33L154.42 10.33Q153.96 10.69 153.36 10.90L153.36 10.90L153.36 10.90Q152.76 11.10 152.12 11.10L152.12 11.10L152.12 11.10Q151.85 11.10 151.78 11.09L151.78 11.09L151.71 10.80L152.08 10.78L152.08 10.78Q152.74 10.75 153.24 10.55L153.24 10.55L153.24 10.55Q153.73 10.36 154.02 10.03L154.02 10.03L154.02 10.03Q154.31 9.70 154.45 9.30L154.45 9.30L154.45 9.30Q154.59 8.90 154.59 8.43L154.59 8.43L154.59 8.43Q154.59 7.98 154.43 7.57L154.43 7.57L154.43 7.57Q154.26 7.16 153.94 6.83L153.94 6.83L153.94 6.83Q153.62 6.50 153.09 6.31L153.09 6.31L153.09 6.31Q152.57 6.11 151.92 6.11L151.92 6.11L151.17 6.15L151.17 13.95L152.77 14.08L152.71 14.40ZM164.29 6.33L163.11 6.16L163.15 5.89L166.28 5.89L166.23 6.16L165.03 6.32L165.03 13.95L166.35 14.08L166.29 14.40L163.18 14.40L163.21 14.11L164.29 13.90L164.29 6.33ZM175.88 6.18L175.88 10.11L177.43 10.11L177.43 10.11Q178.12 9.86 178.58 9.28L178.58 9.28L178.58 9.28Q179.03 8.70 179.03 8.02L179.03 8.02L179.03 8.02Q179.03 7.11 178.41 6.63L178.41 6.63L178.41 6.63Q177.80 6.15 176.71 6.15L176.71 6.15L175.88 6.18ZM177.26 14.40L174.06 14.40L174.11 14.11L175.18 13.90L175.18 6.51L174.08 6.37L174.15 6.13L174.15 6.13Q175.97 5.83 177.05 5.83L177.05 5.83L177.05 5.83Q177.82 5.83 178.42 6.05L178.42 6.05L178.42 6.05Q179.03 6.27 179.41 6.73L179.41 6.73L179.41 6.73Q179.79 7.19 179.79 7.83L179.79 7.83L179.79 7.83Q179.79 8.57 179.36 9.14L179.36 9.14L179.36 9.14Q178.93 9.72 177.90 10.23L177.90 10.23L177.90 10.23L179.22 12.19L179.22 12.19Q179.93 13.23 180.27 13.58L180.27 13.58L180.27 13.58Q180.62 13.92 181.00 14.05L181.00 14.05L181.33 14.16L181.29 14.42L181.29 14.42Q181.00 14.52 180.65 14.52L180.65 14.52L180.65 14.52Q180.37 14.52 180.11 14.40L180.11 14.40L180.11 14.40Q179.86 14.28 179.62 14.01L179.62 14.01L179.62 14.01Q179.38 13.75 179.19 13.48L179.19 13.48L179.19 13.48Q179.01 13.22 178.73 12.77L178.73 12.77L177.34 10.49L175.88 10.49L175.88 13.95L177.32 14.08L177.26 14.40ZM190.18 6.33L189 6.16L189.04 5.89L192.17 5.89L192.12 6.16L190.92 6.32L190.92 13.95L192.24 14.08L192.18 14.40L189.07 14.40L189.10 14.11L190.18 13.90L190.18 6.33ZM200.01 8.09L199.94 5.89L207.01 5.89L206.77 8.16L206.42 8.12L206.31 6.24L203.77 6.24L203.77 13.90L204.98 14.08L204.91 14.40L201.81 14.40L201.84 14.11L203.04 13.90L203.04 6.24L200.61 6.24L200.37 8.15L200.01 8.09ZM214.72 13.60L214.72 13.60L214.93 11.66L215.26 11.71L215.45 13.21L215.45 13.21Q215.67 13.64 216.20 13.89L216.20 13.89L216.20 13.89Q216.73 14.14 217.33 14.14L217.33 14.14L217.33 14.14Q218.02 14.14 218.50 13.74L218.50 13.74L218.50 13.74Q218.98 13.33 218.98 12.61L218.98 12.61L218.98 12.61Q218.98 12.20 218.76 11.83L218.76 11.83L218.76 11.83Q218.54 11.46 218.20 11.18L218.20 11.18L218.20 11.18Q217.85 10.90 217.43 10.63L217.43 10.63L217.43 10.63Q217.01 10.36 216.60 10.07L216.60 10.07L216.60 10.07Q216.18 9.79 215.83 9.48L215.83 9.48L215.83 9.48Q215.49 9.17 215.27 8.75L215.27 8.75L215.27 8.75Q215.06 8.33 215.06 7.84L215.06 7.84L215.06 7.84Q215.06 6.88 215.75 6.29L215.75 6.29L215.75 6.29Q216.45 5.71 217.33 5.71L217.33 5.71L217.33 5.71Q217.92 5.71 218.46 5.90L218.46 5.90L218.46 5.90Q219.00 6.09 219.32 6.46L219.32 6.46L219.10 8.58L218.78 8.53L218.60 6.87L218.60 6.87Q218.42 6.54 218.00 6.32L218.00 6.32L218.00 6.32Q217.58 6.10 217.15 6.10L217.15 6.10L217.15 6.10Q216.56 6.10 216.14 6.48L216.14 6.48L216.14 6.48Q215.73 6.87 215.73 7.52L215.73 7.52L215.73 7.52Q215.73 7.96 215.95 8.35L215.95 8.35L215.95 8.35Q216.17 8.74 216.52 9.03L216.52 9.03L216.52 9.03Q216.88 9.32 217.30 9.61L217.30 9.61L217.30 9.61Q217.72 9.89 218.15 10.17L218.15 10.17L218.15 10.17Q218.58 10.45 218.93 10.75L218.93 10.75L218.93 10.75Q219.28 11.05 219.51 11.45L219.51 11.45L219.51 11.45Q219.73 11.85 219.73 12.29L219.73 12.29L219.73 12.29Q219.73 13.28 218.98 13.93L218.98 13.93L218.98 13.93Q218.22 14.57 216.98 14.57L216.98 14.57L216.98 14.57Q216.27 14.57 215.67 14.30L215.67 14.30L215.67 14.30Q215.07 14.03 214.72 13.60Z"></path></g></svg>